<svg width="16" height="16" viewBox="0 0 16 16" fill="none" xmlns="http://www.w3.org/2000/svg">
<path fill-rule="evenodd" clip-rule="evenodd" d="M15.6138 14.8252C15.8345 15.049 15.8345 15.3846 15.6138 15.6084C15.3931 15.8322 15.0621 15.8322 14.8414 15.6084L8.11034 8.8951L1.26896 15.8322C1.04828 16.0559 0.717241 16.0559 0.496552 15.8322C0.275862 15.6084 0.275862 15.2727 0.496552 15.049L7.33793 8.11189L0.165517 0.951049C-0.055172 0.727273 -0.055172 0.391608 0.165517 0.167832C0.386207 -0.0559441 0.717242 -0.0559441 0.937931 0.167832L8.11034 7.32867L15.0621 0.27972C15.2828 0.0559441 15.6138 0.0559441 15.8345 0.27972C16.0552 0.503497 16.0552 0.839161 15.8345 1.06294L8.77241 8.11189L15.6138 14.8252Z" fill="#575757"/>
</svg>
