<svg width="18" height="21" viewBox="0 0 18 21" fill="none" xmlns="http://www.w3.org/2000/svg">
<path d="M16.5923 14.1975C16.0574 15.6736 15.1536 16.9926 13.9542 18.0477C12.7548 19.1028 11.2935 19.8643 9.68852 20.2706C8.08355 20.6768 6.38005 20.7165 4.71595 20.3863C3.05185 20.0561 1.47391 19.3653 0.109886 18.3699C2.39391 18.5191 4.6319 17.9804 6.49829 16.832C8.36468 15.6836 9.76213 13.9855 10.4873 11.9846C11.2126 9.98383 11.2277 7.7847 10.5306 5.70713C9.83352 3.62956 8.46052 1.78193 6.61134 0.43301C8.29638 0.542768 9.95046 1.02348 11.4396 1.83624C12.9288 2.64899 14.2113 3.77094 15.1832 5.11125C16.1551 6.45156 16.7891 7.97257 17.0339 9.55112C17.2787 11.1297 17.1274 12.7214 16.5923 14.1975Z" fill="#575757"/>
</svg>
