<svg width="40" height="40" viewBox="0 0 40 40" fill="none" xmlns="http://www.w3.org/2000/svg">
<path d="M39.5122 7.53164H28.4878V3.04652C28.4878 1.38898 27.122 0.0239421 25.3659 0.0239421H15.4146C14.6341 -0.0735605 13.8537 0.121445 13.2683 0.70646C12.6829 1.29148 12.2927 2.0715 12.1951 2.94902V7.43414H0.487805C0.195122 7.43414 0 7.62914 0 7.92165C0 8.21416 0.195122 8.50667 0.487805 8.50667H6.43902V35.1249C6.43902 36.3924 6.92683 37.5624 7.70732 38.5375C8.4878 39.415 9.65854 40 10.7317 40H29.9512C31.122 40 32.1951 39.5125 32.9756 38.5375C33.7561 37.6599 34.2439 36.3924 34.2439 35.1249V8.50667H39.5122C39.8049 8.50667 40 8.31166 40 8.01915C40 7.72665 39.8049 7.53164 39.5122 7.53164ZM13.1707 3.14402C13.1707 2.46151 13.4634 1.87649 13.9512 1.48648C14.3415 1.09647 14.8293 0.998968 15.3171 0.998968H25.3659C26.6341 0.998968 27.5122 1.87649 27.5122 3.04652V7.53164H13.1707V3.14402ZM33.2683 35.2224C33.2683 36.1974 32.878 37.2699 32.2927 37.9524C31.7073 38.635 30.8293 39.025 29.9512 39.025H10.7317C9.85366 39.025 8.97561 38.635 8.39024 37.9524C7.70732 37.2699 7.41463 36.1974 7.41463 35.2224V8.50667H33.2683V35.2224Z" fill="#575757"/>
</svg>
