<svg width="16" height="16" viewBox="0 0 16 16" fill="none" xmlns="http://www.w3.org/2000/svg">
<path d="M12.8 14.5358C12.8 14.7309 12.703 14.8285 12.6061 14.9261C12.5091 15.0236 12.3152 15.1212 12.2182 15.1212H1.55151C1.35758 15.1212 1.26061 15.0236 1.16364 14.9261C1.06667 14.8285 0.969697 14.6334 0.969697 14.5358V4.77973C0.969697 4.5846 1.06667 4.48704 1.16364 4.38948C1.26061 4.29192 1.45455 4.19436 1.55151 4.19436H9.69697V3.21875H1.55151C1.16364 3.21875 0.775758 3.41387 0.484848 3.70655C0.193939 3.99924 0 4.38948 0 4.77973V14.4383C0 14.8285 0.193939 15.2188 0.484848 15.5114C0.775758 15.8041 1.16364 15.9992 1.55151 15.9992H12.1212C12.5091 15.9992 12.897 15.8041 13.1879 15.5114C13.4788 15.2188 13.6727 14.8285 13.6727 14.3407V6.24314H12.703V14.5358H12.8Z" fill="#DEDEDE"/>
<path d="M7.36893 7.60747L6.78711 10.7294L9.6962 9.55869L14.7386 3.60747L12.4114 1.65625L7.36893 7.60747Z" fill="#DEDEDE"/>
<path d="M15.9994 1.36585C15.9994 0.97561 15.8055 0.585366 15.4176 0.390244C15.2236 0.292683 15.1267 0.195122 14.9327 0.097561C14.7388 0 14.5449 0 14.3509 0C14.157 0 13.963 0.097561 13.7691 0.195122C13.5752 0.292683 13.4782 0.390244 13.2843 0.585366L12.6055 1.36585L14.9327 3.31707L15.6115 2.53659C15.9024 2.14634 15.9994 1.7561 15.9994 1.36585Z" fill="#DEDEDE"/>
</svg>
